<svg xmlns="http://www.w3.org/2000/svg" version="1.1" xmlns:xlink="http://www.w3.org/1999/xlink" xmlns:svgjs="http://svgjs.dev/svgjs" width="400" height="400"><svg width="400" height="400" viewBox="0 0 400 400" fill="none" xmlns="http://www.w3.org/2000/svg">
<g clip-path="url(#clip0_1_29)">
<path d="M200 400C310.457 400 400 310.457 400 200C400 89.5431 310.457 0 200 0C89.5431 0 0 89.5431 0 200C0 310.457 89.5431 400 200 400Z" fill="black"></path>
<g clip-path="url(#clip1_1_29)">
<path d="M147.985 216.976C149.444 216.837 150.902 216.629 152.291 216.42C150.833 216.629 149.374 216.768 147.985 216.976Z" fill="white"></path>
<path d="M200 187.657C211.319 165.633 242.153 124.572 270.833 104.355C298.264 84.9012 308.75 88.3055 315.625 91.3625C323.542 94.9753 325 107.203 325 114.359C325 121.515 321.042 173.275 318.472 181.89C310 210.376 279.792 220.033 252.014 216.976C250.625 216.768 249.167 216.559 247.708 216.42C249.167 216.629 250.556 216.837 252.014 216.976C292.778 223.02 328.958 237.888 281.458 290.76C229.236 344.882 209.931 279.157 200 245.878C190.069 279.157 178.611 342.52 119.444 290.76C75 245.878 107.222 223.02 147.986 216.976C149.444 216.837 150.903 216.629 152.292 216.42C150.833 216.629 149.375 216.768 147.986 216.976C120.208 220.102 90 210.445 81.5278 181.89C78.9583 173.275 75 121.585 75 114.359C75 107.134 76.4583 94.9753 84.375 91.3625C91.25 88.2361 101.736 84.9012 129.167 104.285C157.847 124.503 188.681 165.563 200 187.587V187.657Z" fill="white"></path>
</g>
</g>
<defs>
<clipPath id="SvgjsClipPath1003">
<rect width="400" height="400" fill="white"></rect>
</clipPath>
<clipPath id="SvgjsClipPath1002">
<rect width="250" height="222.325" fill="white" transform="matrix(-1 0 0 1 325 89)"></rect>
</clipPath>
</defs>
</svg><style>@media (prefers-color-scheme: light) { :root { filter: none; } }
@media (prefers-color-scheme: dark) { :root { filter: none; } }
</style></svg>