<svg width="1550.401" height="342.006" viewBox="0 0 1550.401 342.006" xmlns="http://www.w3.org/2000/svg"><g id="svgGroup" stroke-linecap="round" fill-rule="evenodd" font-size="9pt" stroke="#000" stroke-width="1" fill="#000" style="stroke:#000;stroke-width:1;fill:#000"><path d="M 102.126 337.254 L 0.001 337.254 L 0.001 133.004 A 292.629 292.629 0 0 1 1.103 106.853 Q 2.94 86.424 7.839 70.541 A 108.444 108.444 0 0 1 17.065 48.857 A 84.199 84.199 0 0 1 32.064 29.454 A 90.578 90.578 0 0 1 60.968 11.027 A 113.349 113.349 0 0 1 73.151 6.891 A 176.194 176.194 0 0 1 98.186 1.948 Q 110.577 0.368 124.562 0.072 A 308.904 308.904 0 0 1 131.101 0.004 Q 164.826 0.004 187.864 5.229 A 118.927 118.927 0 0 1 205.822 10.736 Q 217.113 15.263 225.626 21.854 Q 240.351 33.254 246.764 50.829 Q 252.162 65.623 253.016 85.803 A 183.956 183.956 0 0 1 253.176 93.579 A 111.476 111.476 0 0 1 251.969 109.624 A 134.028 134.028 0 0 1 250.564 117.566 A 79.99 79.99 0 0 1 243.956 136.948 A 73.642 73.642 0 0 1 242.014 140.604 Q 236.076 151.054 226.576 157.704 A 36.211 36.211 0 0 1 211.977 163.621 A 49.286 49.286 0 0 1 203.301 164.354 A 88.033 88.033 0 0 1 192.561 163.648 Q 187.334 163.004 181.517 161.771 A 172.934 172.934 0 0 1 174.326 160.079 A 13.548 13.548 0 0 0 171.938 159.775 Q 168.474 159.633 164.114 161.029 A 7.81 7.81 0 0 0 158.8 166.417 Q 158.313 167.955 158.206 169.889 A 20.247 20.247 0 0 0 158.176 171.004 Q 158.176 175.719 160.201 178.41 A 8.258 8.258 0 0 0 164.114 181.216 Q 170.051 183.354 174.801 181.929 A 298.978 298.978 0 0 1 183.358 179.426 Q 187.258 178.353 190.676 177.551 A 133.758 133.758 0 0 1 195.701 176.466 A 101.105 101.105 0 0 1 202.804 175.332 Q 206.066 174.936 208.99 174.837 A 56.501 56.501 0 0 1 210.901 174.804 Q 218.976 174.804 225.151 177.654 Q 261.265 194.111 262.623 244.444 A 147.765 147.765 0 0 1 262.676 248.429 Q 262.676 295.454 240.589 318.729 A 63.841 63.841 0 0 1 217.586 333.798 Q 198.363 341.491 169.647 341.972 A 231.252 231.252 0 0 1 165.776 342.004 A 101.162 101.162 0 0 1 143.347 339.639 A 73.788 73.788 0 0 1 117.801 328.704 Q 111.626 323.954 107.114 314.454 A 74.37 74.37 0 0 1 104.813 308.991 Q 101.295 299.729 97.376 284.054 Q 95.476 276.454 90.726 273.366 A 12.518 12.518 0 0 0 83.781 271.254 Q 82.409 271.254 80.976 271.545 A 16.138 16.138 0 0 0 80.276 271.704 Q 75.051 273.604 73.626 279.304 Q 72.205 284.988 75.979 288.782 A 11.345 11.345 0 0 0 76.001 288.804 A 206.525 206.525 0 0 1 84.785 298.834 Q 88.925 303.902 92.159 308.644 A 103.104 103.104 0 0 1 95.714 314.216 A 49.469 49.469 0 0 1 100.23 324.04 Q 102.157 329.942 102.157 335.782 A 35.354 35.354 0 0 1 102.126 337.254 Z M 138.226 213.754 L 97.376 213.754 L 97.376 218.979 A 33.019 33.019 0 0 0 99.046 229.733 A 27.217 27.217 0 0 0 109.251 243.204 A 44.854 44.854 0 0 0 128.533 251 A 60.122 60.122 0 0 0 138.226 251.754 A 129.073 129.073 0 0 0 145.347 251.572 Q 156.252 250.967 160.862 248.347 A 10.547 10.547 0 0 0 161.501 247.954 A 10.982 10.982 0 0 0 165.397 243.174 Q 167.088 239.417 167.194 233.546 A 44.019 44.019 0 0 0 167.201 232.754 A 38.463 38.463 0 0 0 166.888 227.644 Q 165.865 220.044 161.501 217.316 Q 155.801 213.754 138.226 213.754 Z M 97.376 130.629 L 135.851 130.629 Q 152.476 130.629 157.464 127.066 A 9.875 9.875 0 0 0 160.646 123.059 Q 162.451 119.151 162.451 112.579 A 27.448 27.448 0 0 0 162.015 107.496 Q 160.811 101.119 156.276 98.329 Q 150.305 94.655 132.789 94.533 A 174.703 174.703 0 0 0 131.576 94.529 A 56.801 56.801 0 0 0 122.231 95.243 Q 117.373 96.055 113.561 97.792 A 22.739 22.739 0 0 0 105.689 103.554 A 29.419 29.419 0 0 0 100.386 112.775 Q 98.847 116.948 98.087 122.075 A 71.208 71.208 0 0 0 97.376 130.629 Z" id="0" vector-effect="non-scaling-stroke"/><path d="M 267.426 244.629 L 343.901 244.629 Q 353.636 244.629 358.583 241.756 A 11.604 11.604 0 0 0 360.526 240.354 A 12.316 12.316 0 0 0 363.645 235.755 Q 365.174 232.002 365.27 226.386 A 44.51 44.51 0 0 0 365.276 225.629 A 51.358 51.358 0 0 0 363.322 211.894 A 69.929 69.929 0 0 0 359.101 200.691 Q 352.926 187.629 345.801 171.716 A 325.141 325.141 0 0 1 337.266 150.62 A 398.661 398.661 0 0 1 332.501 136.804 A 123.908 123.908 0 0 1 327.385 112.907 A 161.76 161.76 0 0 1 326.326 94.054 A 165.064 165.064 0 0 1 327.301 75.589 Q 328.732 62.899 332.264 52.729 Q 338.201 35.629 352.451 24.941 A 74.314 74.314 0 0 1 367.741 16.226 Q 375.06 13.077 383.774 10.87 A 136.943 136.943 0 0 1 389.739 9.504 A 202.168 202.168 0 0 1 408.586 6.609 Q 425.601 4.754 446.976 4.754 L 528.676 4.754 L 528.676 97.379 L 451.726 97.379 Q 441.601 97.379 436.535 100.751 A 12.345 12.345 0 0 0 435.339 101.654 A 12.464 12.464 0 0 0 431.93 106.573 Q 431.091 108.658 430.698 111.295 A 34.562 34.562 0 0 0 430.351 116.379 A 51.358 51.358 0 0 0 432.305 130.114 A 69.929 69.929 0 0 0 436.526 141.316 Q 442.701 154.379 450.064 170.291 A 292.894 292.894 0 0 1 458.803 191.388 A 356.254 356.254 0 0 1 463.601 205.204 A 123.908 123.908 0 0 1 468.717 229.1 A 161.76 161.76 0 0 1 469.776 247.954 Q 469.776 267.566 465.729 282.352 A 83.728 83.728 0 0 1 463.601 289.041 Q 457.426 305.904 443.414 316.591 A 72.72 72.72 0 0 1 428.813 325.107 Q 421.655 328.292 413.067 330.597 A 139.734 139.734 0 0 1 406.126 332.266 A 197.623 197.623 0 0 1 387.133 335.306 Q 370.026 337.254 348.651 337.254 L 267.426 337.254 L 267.426 244.629 Z" id="1" vector-effect="non-scaling-stroke"/><path d="M 787.076 250.329 L 796.576 337.254 L 703.951 337.254 L 694.451 250.329 A 134.273 134.273 0 0 0 693.788 244.786 Q 692.981 239.122 691.839 235.366 A 26.961 26.961 0 0 0 690.62 232.088 Q 689.887 230.472 689.003 229.22 A 11.928 11.928 0 0 0 687.326 227.291 A 12.244 12.244 0 0 0 683.334 224.882 Q 681.693 224.261 679.726 223.966 A 54.056 54.056 0 0 0 676.124 223.561 Q 674.244 223.407 672.057 223.331 A 133.933 133.933 0 0 0 667.376 223.254 L 633.176 223.254 L 633.176 337.254 L 538.176 337.254 L 538.176 4.754 L 633.176 4.754 L 633.176 130.629 L 636.501 130.629 A 133.212 133.212 0 0 0 640.128 130.582 Q 643.864 130.48 646.476 130.154 Q 650.028 129.71 652.335 128.02 A 9.311 9.311 0 0 0 652.651 127.779 A 11.032 11.032 0 0 0 654.906 125.291 Q 655.673 124.149 656.281 122.728 A 19.109 19.109 0 0 0 656.451 122.316 A 75.136 75.136 0 0 0 657.388 119.835 Q 658.398 117.024 659.604 113.137 A 258.237 258.237 0 0 0 659.776 112.579 L 692.076 4.754 L 787.076 4.754 L 741.001 123.029 A 79.814 79.814 0 0 1 736.13 133.517 Q 730.314 143.855 722.476 148.916 A 33.719 33.719 0 0 1 713.925 152.745 Q 703.257 155.978 686.376 155.329 A 29.033 29.033 0 0 0 682.065 155.626 Q 679.862 155.958 678.102 156.66 A 11.332 11.332 0 0 0 674.501 158.891 A 8.464 8.464 0 0 0 672.049 163.274 Q 671.392 166.113 672.12 170.021 A 27.355 27.355 0 0 0 672.126 170.054 A 14.798 14.798 0 0 0 672.851 173.143 Q 674.399 177.409 678.539 178.129 Q 682.294 178.782 685.263 178.088 A 11.505 11.505 0 0 0 687.801 177.179 A 246.619 246.619 0 0 1 699.884 172.815 Q 716.895 167.204 727.226 167.204 A 47.18 47.18 0 0 1 736.549 168.097 A 41.047 41.047 0 0 1 740.526 169.104 A 67.053 67.053 0 0 1 750.56 173.132 A 76.337 76.337 0 0 1 752.876 174.329 A 62.484 62.484 0 0 1 763.544 181.836 A 56.15 56.15 0 0 1 766.176 184.304 A 41.47 41.47 0 0 1 772.275 192.161 A 54.312 54.312 0 0 1 775.676 198.791 Q 778.9 206.248 781.441 216.44 A 177.31 177.31 0 0 1 782.326 220.166 Q 784.508 229.804 786.133 242.364 A 382.618 382.618 0 0 1 787.076 250.329 Z" id="2" vector-effect="non-scaling-stroke"/><path d="M 884.926 4.754 L 884.926 86.929 A 202.9 202.9 0 0 0 885.088 95.302 Q 885.446 103.925 886.589 109.966 Q 888.251 118.754 892.051 123.741 A 17.54 17.54 0 0 0 900.068 129.579 A 23.163 23.163 0 0 0 902.739 130.391 A 52.011 52.011 0 0 0 908.405 131.404 Q 911.296 131.77 914.628 131.929 A 113.884 113.884 0 0 0 920.076 132.054 A 108.745 108.745 0 0 0 927.127 131.839 Q 930.431 131.624 933.273 131.193 A 49.01 49.01 0 0 0 937.414 130.391 A 21.499 21.499 0 0 0 943.567 127.911 A 18.332 18.332 0 0 0 948.339 123.741 Q 951.595 119.718 953.307 113.223 A 47.282 47.282 0 0 0 954.039 109.966 Q 955.155 104.062 955.522 95.692 A 200.96 200.96 0 0 0 955.701 86.929 L 955.701 4.754 L 1050.701 4.754 L 1050.701 96.429 Q 1050.701 130.629 1045.714 154.141 A 135.273 135.273 0 0 1 1040.774 171.795 Q 1037.562 180.737 1033.263 187.978 A 74.667 74.667 0 0 1 1030.276 192.616 A 70.654 70.654 0 0 1 1009.091 212.793 A 68.657 68.657 0 0 1 1004.389 215.416 Q 989.418 223.017 968.865 226.373 A 172.352 172.352 0 0 1 967.576 226.579 L 967.576 337.254 L 872.576 337.254 L 872.576 226.579 Q 851.201 223.254 835.764 215.416 Q 820.326 207.579 810.114 192.616 A 85.555 85.555 0 0 1 801.748 176.858 Q 798.624 169.258 796.342 160.28 A 157.903 157.903 0 0 1 794.914 154.141 A 202.074 202.074 0 0 1 791.874 135.004 Q 790.672 124.388 790.212 112.182 A 418.456 418.456 0 0 1 789.926 96.429 L 789.926 4.754 L 884.926 4.754 Z" id="3" vector-effect="non-scaling-stroke"/><path d="M 1155.676 261.729 L 1155.676 337.254 L 1060.676 337.254 L 1060.676 128.254 Q 1060.676 87.609 1072.21 60.272 A 91.041 91.041 0 0 1 1091.551 30.879 A 91.588 91.588 0 0 1 1124.266 10.393 Q 1151.548 0.004 1191.776 0.004 A 247.774 247.774 0 0 1 1227.685 2.419 Q 1245.779 5.077 1260.198 10.662 A 91.18 91.18 0 0 1 1292.001 30.641 A 92.237 92.237 0 0 1 1313.107 64.313 Q 1318.602 78.972 1321.006 97.22 A 234.433 234.433 0 0 1 1322.876 127.779 Q 1322.876 194.754 1297.701 225.391 Q 1276.398 251.316 1232.988 255.304 A 180.642 180.642 0 0 1 1216.476 256.029 A 97.627 97.627 0 0 1 1204.24 255.298 A 71.176 71.176 0 0 1 1192.014 252.704 Q 1181.326 249.379 1171.826 242.729 A 29.96 29.96 0 0 1 1165.536 236.567 Q 1162.849 233.08 1160.664 228.479 A 74.37 74.37 0 0 1 1158.363 223.016 Q 1154.845 213.754 1150.926 198.079 A 20.157 20.157 0 0 0 1149.442 193.448 A 13.955 13.955 0 0 0 1144.514 187.629 Q 1139.951 184.587 1134.792 185.918 A 14.545 14.545 0 0 0 1133.826 186.204 A 8.961 8.961 0 0 0 1129.709 188.533 Q 1128.327 189.935 1127.567 192.037 A 13.289 13.289 0 0 0 1127.176 193.329 A 13.009 13.009 0 0 0 1126.829 195.37 Q 1126.474 199.503 1129.136 202.813 A 13.021 13.021 0 0 0 1129.551 203.304 Q 1142.376 217.079 1149.026 231.091 A 69.727 69.727 0 0 1 1155.618 258.635 A 81.352 81.352 0 0 1 1155.676 261.729 Z M 1155.676 128.254 A 42.542 42.542 0 0 0 1156.845 138.496 A 30.331 30.331 0 0 0 1163.989 152.004 A 24.387 24.387 0 0 0 1173.193 158.093 Q 1177.165 159.653 1182.161 160.384 A 66.607 66.607 0 0 0 1191.776 161.029 Q 1202.923 161.029 1209.756 159.666 A 43.688 43.688 0 0 0 1210.064 159.604 A 30.777 30.777 0 0 0 1214.828 158.234 Q 1217.499 157.213 1219.569 155.74 A 17.268 17.268 0 0 0 1220.989 154.616 A 15.24 15.24 0 0 0 1225.026 148.798 A 21.494 21.494 0 0 0 1226.214 144.641 A 60.85 60.85 0 0 0 1226.914 139.572 Q 1227.401 134.644 1227.401 128.254 Q 1227.401 121.552 1226.865 116.458 A 59.525 59.525 0 0 0 1226.214 111.866 A 21.036 21.036 0 0 0 1224.815 107.209 A 15.081 15.081 0 0 0 1220.989 101.891 Q 1217.361 98.691 1211.433 97.215 A 35.208 35.208 0 0 0 1210.064 96.904 Q 1203.481 95.542 1192.777 95.482 A 177.642 177.642 0 0 0 1191.776 95.479 Q 1180.376 95.479 1173.251 96.429 A 30.01 30.01 0 0 0 1168.839 97.335 Q 1166.595 97.988 1164.815 98.972 A 14.183 14.183 0 0 0 1162.326 100.704 Q 1158.526 104.029 1157.101 110.679 A 52.332 52.332 0 0 0 1156.35 115.253 Q 1155.698 120.566 1155.677 127.772 A 165.324 165.324 0 0 0 1155.676 128.254 Z" id="4" vector-effect="non-scaling-stroke"/><path d="M 1323.351 97.379 L 1323.351 4.754 L 1550.401 4.754 L 1550.401 97.379 L 1484.376 97.379 L 1484.376 337.254 L 1389.376 337.254 L 1389.376 97.379 L 1323.351 97.379 Z" id="5" vector-effect="non-scaling-stroke"/></g></svg>