<svg width="1546.8" height="292.018" viewBox="0 0 1546.8 292.018" xmlns="http://www.w3.org/2000/svg">
<g id="svgGroup" stroke-linecap="round" fill-rule="evenodd" font-size="9pt" stroke-width="0.25mm" fill="#000" stroke="#000">
<path d="M 128 141.611 L 128 131.611 C 140 131.611 155.6 134.411 167.2 130.411 A 151.883 151.883 0 0 0 188.311 121.349 C 208.457 110.553 218.8 96.396 218.8 74.011 C 218.8 19.496 181.653 7.817 130.317 6.221 A 474.687 474.687 0 0 0 115.6 6.011 L 0 6.011 L 0 286.011 L 58 286.011 L 58 286.411 A 2907.795 2907.795 0 0 1 70.842 286.442 C 91.938 286.536 113.034 286.811 122 286.811 C 192.8 286.811 233.6 275.211 233.6 208.011 A 58.563 58.563 0 0 0 229.185 184.804 C 219.547 162.163 195.561 151.501 171.575 143.788 A 391.205 391.205 0 0 0 167.2 142.411 C 156.593 139.119 142.641 141.179 131.156 141.555 A 96.51 96.51 0 0 1 128 141.611 Z M 58 242.411 L 58 167.211 L 61.6 167.211 C 73.2 167.611 81.2 167.611 86.8 167.611 A 681.375 681.375 0 0 1 117.718 168.102 C 150.011 169.612 170.324 175.704 173.237 200.006 A 53.847 53.847 0 0 1 173.6 206.411 A 51.584 51.584 0 0 1 171.72 221.348 C 164.994 243.485 140.252 242.418 97.97 242.411 A 2443.519 2443.519 0 0 0 97.6 242.411 L 58 242.411 Z M 58 107.211 L 58 50.811 L 98.4 50.811 A 557.075 557.075 0 0 1 119.414 51.075 C 142.269 51.966 156.343 55.852 158.507 72.74 A 38.352 38.352 0 0 1 158.8 77.611 C 158.8 104.011 133.6 107.211 98.4 107.211 L 58 107.211 Z" id="0" vector-effect="non-scaling-stroke"/>
<path d="M 289.6 202.411 L 247.2 236.411 C 284 277.211 316 292.011 367.2 292.011 C 436.642 292.011 487.05 267.58 501.187 229.252 A 65.598 65.598 0 0 0 505.2 206.411 A 69.619 69.619 0 0 0 493.894 167.466 C 455.625 108.791 332.685 105.054 320.908 77.583 A 10.983 10.983 0 0 1 320 73.211 A 19.048 19.048 0 0 1 329.215 57.643 C 337.305 51.97 349.841 48.811 363.2 48.811 A 177.292 177.292 0 0 1 398.041 51.983 A 112.551 112.551 0 0 1 453.6 79.611 L 495.6 44.811 A 209.183 209.183 0 0 0 453.841 17.101 A 166.541 166.541 0 0 0 378.4 0.011 C 316.8 0.011 269.412 23.993 257.376 58.711 A 53.768 53.768 0 0 0 254.4 76.411 A 64.262 64.262 0 0 0 285.722 130.077 C 333.438 163.688 419.785 171.892 428.828 201.937 A 18.191 18.191 0 0 1 429.6 207.211 A 22.805 22.805 0 0 1 419.188 225.963 C 410.171 232.508 395.563 236.411 376.4 236.411 A 196.928 196.928 0 0 1 352.87 235.132 C 323.9 231.638 307.68 221.062 291.461 204.355 A 203.708 203.708 0 0 1 289.6 202.411 Z" id="1" vector-effect="non-scaling-stroke"/>
<path d="M 596 126.411 L 586.8 122.011 C 592 111.611 599.6 98.811 599.6 86.811 L 599.6 6.011 L 541.6 6.011 L 541.6 286.011 L 599.6 286.011 L 599.6 178.411 L 635.2 148.011 L 731.2 286.011 L 804.8 286.011 L 680.4 113.611 L 793.6 6.011 L 716.8 6.011 L 614.4 93.611 C 605.865 100.982 601.093 114.751 596.433 125.427 A 159.826 159.826 0 0 1 596 126.411 Z" id="2" vector-effect="non-scaling-stroke"/>
<path d="M 879.2 6.011 L 815.2 6.011 L 915.6 153.611 L 915.6 283.211 L 975.6 283.211 L 975.6 153.611 L 1074 6.011 L 1010 6.011 L 958.8 86.411 A 52.962 52.962 0 0 0 951.955 105.107 C 950.138 114.771 950 125.081 950 134.011 L 940 134.011 C 940 120.699 939.386 104.319 933.592 91.589 A 42.182 42.182 0 0 0 930.8 86.411 L 879.2 6.011 Z" id="3" vector-effect="non-scaling-stroke"/>
<path d="M 1216.4 6.011 L 1104.4 6.011 L 1104.4 286.011 L 1164.4 286.011 L 1164.4 168.811 C 1180.019 169.117 1193.527 169.189 1203.848 169.206 A 5093.312 5093.312 0 0 0 1212.4 169.211 A 230.858 230.858 0 0 0 1261.66 164.7 C 1293.396 157.668 1316.162 141.277 1322.806 107.853 A 112.045 112.045 0 0 0 1324.8 86.011 A 98.588 98.588 0 0 0 1320.452 55.39 C 1307.194 14.707 1265.194 6.011 1216.4 6.011 Z M 1164.4 119.611 L 1164.4 56.011 L 1205.2 56.011 C 1237.182 56.011 1262.94 56.011 1266.404 80.119 A 41.454 41.454 0 0 1 1266.8 86.011 A 34.691 34.691 0 0 1 1264.033 100.466 C 1255.968 118.272 1231.388 119.611 1205.2 119.611 L 1164.4 119.611 Z" id="4" vector-effect="non-scaling-stroke"/>
<path d="M 1474.4 286.011 L 1474.4 62.011 L 1546.8 62.011 L 1546.8 6.011 L 1342.4 6.011 L 1342.4 62.011 L 1414.4 62.011 L 1414.4 286.011 L 1474.4 286.011 Z" id="5" vector-effect="non-scaling-stroke"/>
</g>
</svg>