<svg width="1399.2" height="249.814" viewBox="0 0 1399.2 249.814" xmlns="http://www.w3.org/2000/svg"><g id="svgGroup" stroke-linecap="round" fill-rule="evenodd" font-size="9pt" stroke="#000" stroke-width="1" fill="#000" style="stroke:#000;stroke-width:1;fill:#000"><path d="M 0 245.012 L 135.9 245.012 A 88.26 88.26 0 0 0 172.059 237.643 C 194.386 227.622 208.8 208.258 208.8 185.012 C 208.8 150.812 190.5 125.012 127.8 125.012 L 127.8 116.012 A 154.899 154.899 0 0 0 151.102 114.417 C 189.153 108.603 199.5 87.468 199.5 60.512 C 199.5 28.712 171.9 5.012 135.3 5.012 L 0 5.012 L 0 245.012 Z M 82.8 167.012 L 82.8 138.512 L 132.3 138.512 A 34.477 34.477 0 0 1 139.162 139.142 C 146.791 140.697 150.9 145.084 150.9 151.712 C 150.9 161.612 144.3 167.012 132.3 167.012 L 82.8 167.012 Z M 82.8 102.512 L 82.8 74.012 L 129.3 74.012 A 24.718 24.718 0 0 1 135.524 74.737 C 141.79 76.371 145.2 80.715 145.2 87.212 A 19.26 19.26 0 0 1 144.214 93.601 C 142.653 98.049 139.271 100.91 134.302 102.006 A 23.235 23.235 0 0 1 129.3 102.512 L 82.8 102.512 Z" id="0" vector-effect="non-scaling-stroke"/><path d="M 415.8 85.412 L 415.8 15.512 C 409.147 12.989 381.621 5.554 346.901 2.194 A 351.238 351.238 0 0 0 313.2 0.512 A 142.266 142.266 0 0 0 285.944 2.977 C 242.026 11.55 225.006 40.86 223.862 65.083 A 55.759 55.759 0 0 0 223.8 67.712 C 223.8 123.812 340.5 118.112 340.5 155.612 C 340.5 182.312 312.6 180.512 298.2 180.512 A 153.96 153.96 0 0 1 274.769 178.781 C 254.987 175.745 239.879 169.154 226.707 162.564 A 838.594 838.594 0 0 1 217.8 158.012 L 217.8 231.812 C 225.297 237.241 257.747 246.681 300.943 249.187 A 372.531 372.531 0 0 0 322.5 249.812 A 204.741 204.741 0 0 0 348.935 248.204 C 413.509 239.788 425.976 200.396 427.596 179.173 A 69.272 69.272 0 0 0 427.8 173.912 A 39.954 39.954 0 0 0 408.628 140.005 C 383.298 122.227 339.688 117.119 320.829 102.889 A 19.729 19.729 0 0 1 311.7 86.912 A 14.656 14.656 0 0 1 321.132 73.553 C 328.122 70.104 337.978 68.912 347.1 68.912 A 109.747 109.747 0 0 1 362.931 70.172 C 379.467 72.603 396.772 78.134 409.78 83.059 A 299.473 299.473 0 0 1 415.8 85.412 Z" id="1" vector-effect="non-scaling-stroke"/><path d="M 678.72 7.24 L 579.9 118.412 L 695.7 245.012 L 578.7 245.012 L 506.1 155.612 L 495.6 165.512 L 533.4 214.112 L 531.6 245.012 L 448.8 245.012 L 448.8 5.012 L 531.6 5.012 L 531.6 20.612 L 492.9 66.812 L 503.4 77.312 L 563.7 5.012 L 677.7 5.012 L 680.7 5.012" id="2" vector-effect="non-scaling-stroke"/><path d="M 680.7 5.012 L 764.7 5.012 L 793.2 68.312 L 793.2 125.012 L 808.2 125.012 L 808.2 68.312 L 836.7 5.012 L 923.7 5.012 L 842.7 182.012 L 842.7 245.012 L 758.7 245.012 L 758.7 182.012 L 678.72 7.24" id="3" vector-effect="non-scaling-stroke"/><path d="M 929.7 245.012 L 1013.7 245.012 L 1013.7 159.512 C 1020.3 170.612 1030.8 181.412 1041.6 188.612 A 86.535 86.535 0 0 0 1089.712 202.959 C 1122.717 202.959 1156.43 185.113 1177.5 152.912 A 114.244 114.244 0 0 0 1192.134 119.792 C 1202.76 79.095 1189.236 36.289 1155 14.012 C 1120.871 -8.348 1076.4 -3.008 1043.321 23.368 A 117.654 117.654 0 0 0 1019.1 49.712 C 1001.7 75.512 1000.5 104.012 1000.5 111.212 L 984.9 109.112 A 136.186 136.186 0 0 1 989.083 75.929 C 995.051 52.238 1006.217 33.857 1014.6 26.312 L 1013.7 5.012 L 929.7 5.012 L 929.7 245.012 Z M 1044.433 130.31 A 15.359 15.359 0 0 0 1050.9 138.812 C 1064.1 146.912 1090.2 129.212 1109.1 99.512 A 150.545 150.545 0 0 0 1111.644 95.255 C 1128.059 66.722 1131.275 39.129 1118.7 31.412 A 13.745 13.745 0 0 0 1118.041 31.05 C 1106.576 25.138 1087.278 35.575 1070.768 56.018 A 132.216 132.216 0 0 0 1060.5 70.712 A 141.39 141.39 0 0 0 1059.016 73.058 C 1045.217 95.351 1040.061 117.644 1044.433 130.31 Z" id="4" vector-effect="non-scaling-stroke"/><path d="M 1399.2 230.012 L 1399.2 145.112 C 1389.254 148.704 1377.528 152.295 1364.489 155.184 A 274.618 274.618 0 0 1 1361.1 155.912 A 64.88 64.88 0 0 1 1359.63 156.211 C 1347.275 158.584 1315.757 161.508 1307.7 152.012 C 1299.602 142.715 1309.495 111.229 1312.198 110.013 A 0.526 0.526 0 0 1 1312.2 110.012 L 1399.2 110.012 L 1399.2 80.012 L 1325.7 80.012 A 2561.416 2561.416 0 0 0 1316.448 83.861 C 1305.095 88.586 1294.305 92.905 1277.7 97.412 L 1272.9 83.312 A 348.62 348.62 0 0 0 1278.758 81.689 C 1330.632 66.825 1382.506 38.947 1384.726 7.128 A 30.396 30.396 0 0 0 1384.8 5.012 L 1250.7 5.012 A 68.984 68.984 0 0 1 1256.314 14.344 C 1274.929 52.026 1239.439 80.012 1207.8 80.012 L 1207.8 110.012 L 1236.9 110.012 A 5.368 5.368 0 0 0 1236.133 111.183 C 1232.96 117.139 1225.2 141.558 1225.2 154.712 A 94.766 94.766 0 0 0 1285.178 239.923 A 119.691 119.691 0 0 0 1333.2 249.812 A 120.286 120.286 0 0 0 1376.59 241.911 A 109.178 109.178 0 0 0 1399.2 230.012 Z" id="5" vector-effect="non-scaling-stroke"/></g></svg>